<mxfile host="app.diagrams.net" modified="2024-04-22T07:29:50.945Z" agent="Mozilla/5.0 (Windows NT 10.0; Win64; x64; rv:125.0) Gecko/20100101 Firefox/125.0" etag="62od5O3Zs0FOxlTlxTnO" version="24.2.2" type="device">
  <diagram name="PÃ¡gina-1" id="bDq3pl9JeryCzW7H8vNC">
    <mxGraphModel dx="731" dy="744" grid="1" gridSize="10" guides="1" tooltips="1" connect="1" arrows="1" fold="1" page="1" pageScale="1" pageWidth="827" pageHeight="1169" math="0" shadow="0">
      <root>
        <mxCell id="0" />
        <mxCell id="1" parent="0" />
        <mxCell id="4Rjvg9Pl1T5QLFHCRQXP-1" value="Cliente" style="rounded=0;whiteSpace=wrap;html=1;" parent="1" vertex="1">
          <mxGeometry x="230" y="400" width="120" height="60" as="geometry" />
        </mxCell>
        <mxCell id="4Rjvg9Pl1T5QLFHCRQXP-2" value="Producto" style="rounded=0;whiteSpace=wrap;html=1;" parent="1" vertex="1">
          <mxGeometry x="610" y="400" width="120" height="60" as="geometry" />
        </mxCell>
        <mxCell id="4Rjvg9Pl1T5QLFHCRQXP-7" style="edgeStyle=orthogonalEdgeStyle;rounded=0;orthogonalLoop=1;jettySize=auto;html=1;entryX=0.5;entryY=0;entryDx=0;entryDy=0;" parent="1" source="4Rjvg9Pl1T5QLFHCRQXP-3" target="4Rjvg9Pl1T5QLFHCRQXP-1" edge="1">
          <mxGeometry relative="1" as="geometry">
            <Array as="points">
              <mxPoint x="70" y="320" />
              <mxPoint x="290" y="320" />
            </Array>
          </mxGeometry>
        </mxCell>
        <mxCell id="4Rjvg9Pl1T5QLFHCRQXP-3" value="DNI" style="ellipse;whiteSpace=wrap;html=1;" parent="1" vertex="1">
          <mxGeometry x="10" y="210" width="120" height="80" as="geometry" />
        </mxCell>
        <mxCell id="4Rjvg9Pl1T5QLFHCRQXP-11" style="edgeStyle=orthogonalEdgeStyle;rounded=0;orthogonalLoop=1;jettySize=auto;html=1;entryX=0.5;entryY=0;entryDx=0;entryDy=0;" parent="1" source="4Rjvg9Pl1T5QLFHCRQXP-4" target="4Rjvg9Pl1T5QLFHCRQXP-1" edge="1">
          <mxGeometry relative="1" as="geometry">
            <Array as="points">
              <mxPoint x="220" y="320" />
              <mxPoint x="290" y="320" />
            </Array>
          </mxGeometry>
        </mxCell>
        <mxCell id="4Rjvg9Pl1T5QLFHCRQXP-4" value="Nombre" style="ellipse;whiteSpace=wrap;html=1;" parent="1" vertex="1">
          <mxGeometry x="160" y="210" width="120" height="80" as="geometry" />
        </mxCell>
        <mxCell id="4Rjvg9Pl1T5QLFHCRQXP-9" style="edgeStyle=orthogonalEdgeStyle;rounded=0;orthogonalLoop=1;jettySize=auto;html=1;entryX=0.5;entryY=0;entryDx=0;entryDy=0;" parent="1" source="4Rjvg9Pl1T5QLFHCRQXP-5" target="4Rjvg9Pl1T5QLFHCRQXP-1" edge="1">
          <mxGeometry relative="1" as="geometry">
            <Array as="points">
              <mxPoint x="360" y="320" />
              <mxPoint x="290" y="320" />
            </Array>
          </mxGeometry>
        </mxCell>
        <mxCell id="4Rjvg9Pl1T5QLFHCRQXP-5" value="Apellido" style="ellipse;whiteSpace=wrap;html=1;" parent="1" vertex="1">
          <mxGeometry x="300" y="210" width="120" height="80" as="geometry" />
        </mxCell>
        <mxCell id="4Rjvg9Pl1T5QLFHCRQXP-13" style="edgeStyle=orthogonalEdgeStyle;rounded=0;orthogonalLoop=1;jettySize=auto;html=1;entryX=0.5;entryY=0;entryDx=0;entryDy=0;exitX=0.5;exitY=1;exitDx=0;exitDy=0;" parent="1" source="4Rjvg9Pl1T5QLFHCRQXP-6" target="4Rjvg9Pl1T5QLFHCRQXP-1" edge="1">
          <mxGeometry relative="1" as="geometry">
            <Array as="points">
              <mxPoint x="500" y="320" />
              <mxPoint x="290" y="320" />
            </Array>
          </mxGeometry>
        </mxCell>
        <mxCell id="4Rjvg9Pl1T5QLFHCRQXP-6" value="Direccion" style="ellipse;whiteSpace=wrap;html=1;" parent="1" vertex="1">
          <mxGeometry x="440" y="210" width="120" height="80" as="geometry" />
        </mxCell>
        <mxCell id="4Rjvg9Pl1T5QLFHCRQXP-15" style="edgeStyle=orthogonalEdgeStyle;rounded=0;orthogonalLoop=1;jettySize=auto;html=1;" parent="1" source="4Rjvg9Pl1T5QLFHCRQXP-14" target="4Rjvg9Pl1T5QLFHCRQXP-1" edge="1">
          <mxGeometry relative="1" as="geometry" />
        </mxCell>
        <mxCell id="4Rjvg9Pl1T5QLFHCRQXP-14" value="ID" style="ellipse;whiteSpace=wrap;html=1;" parent="1" vertex="1">
          <mxGeometry x="50" y="390" width="120" height="80" as="geometry" />
        </mxCell>
        <mxCell id="4Rjvg9Pl1T5QLFHCRQXP-17" style="edgeStyle=orthogonalEdgeStyle;rounded=0;orthogonalLoop=1;jettySize=auto;html=1;entryX=1;entryY=0.5;entryDx=0;entryDy=0;" parent="1" source="4Rjvg9Pl1T5QLFHCRQXP-16" target="4Rjvg9Pl1T5QLFHCRQXP-2" edge="1">
          <mxGeometry relative="1" as="geometry" />
        </mxCell>
        <mxCell id="4Rjvg9Pl1T5QLFHCRQXP-16" value="ID" style="ellipse;whiteSpace=wrap;html=1;" parent="1" vertex="1">
          <mxGeometry x="790" y="390" width="120" height="80" as="geometry" />
        </mxCell>
        <mxCell id="4Rjvg9Pl1T5QLFHCRQXP-23" style="edgeStyle=orthogonalEdgeStyle;rounded=0;orthogonalLoop=1;jettySize=auto;html=1;endArrow=none;endFill=0;" parent="1" source="4Rjvg9Pl1T5QLFHCRQXP-18" target="4Rjvg9Pl1T5QLFHCRQXP-2" edge="1">
          <mxGeometry relative="1" as="geometry" />
        </mxCell>
        <mxCell id="4Rjvg9Pl1T5QLFHCRQXP-24" style="edgeStyle=orthogonalEdgeStyle;rounded=0;orthogonalLoop=1;jettySize=auto;html=1;endArrow=none;endFill=0;" parent="1" source="4Rjvg9Pl1T5QLFHCRQXP-18" target="4Rjvg9Pl1T5QLFHCRQXP-1" edge="1">
          <mxGeometry relative="1" as="geometry" />
        </mxCell>
        <mxCell id="4Rjvg9Pl1T5QLFHCRQXP-18" value="&lt;div&gt;Compra&lt;/div&gt;" style="rounded=0;whiteSpace=wrap;html=1;" parent="1" vertex="1">
          <mxGeometry x="420" y="400" width="120" height="60" as="geometry" />
        </mxCell>
        <mxCell id="4Rjvg9Pl1T5QLFHCRQXP-25" style="edgeStyle=orthogonalEdgeStyle;rounded=0;orthogonalLoop=1;jettySize=auto;html=1;entryX=0.5;entryY=1;entryDx=0;entryDy=0;" parent="1" source="4Rjvg9Pl1T5QLFHCRQXP-19" target="4Rjvg9Pl1T5QLFHCRQXP-18" edge="1">
          <mxGeometry relative="1" as="geometry" />
        </mxCell>
        <mxCell id="4Rjvg9Pl1T5QLFHCRQXP-19" value="Cliente_ID" style="ellipse;whiteSpace=wrap;html=1;" parent="1" vertex="1">
          <mxGeometry x="353" y="530" width="120" height="80" as="geometry" />
        </mxCell>
        <mxCell id="4Rjvg9Pl1T5QLFHCRQXP-26" style="edgeStyle=orthogonalEdgeStyle;rounded=0;orthogonalLoop=1;jettySize=auto;html=1;" parent="1" source="4Rjvg9Pl1T5QLFHCRQXP-20" target="4Rjvg9Pl1T5QLFHCRQXP-18" edge="1">
          <mxGeometry relative="1" as="geometry" />
        </mxCell>
        <mxCell id="4Rjvg9Pl1T5QLFHCRQXP-20" value="&lt;div&gt;Producto_ID&lt;/div&gt;" style="ellipse;whiteSpace=wrap;html=1;" parent="1" vertex="1">
          <mxGeometry x="490" y="530" width="120" height="80" as="geometry" />
        </mxCell>
        <mxCell id="4Rjvg9Pl1T5QLFHCRQXP-22" style="edgeStyle=orthogonalEdgeStyle;rounded=0;orthogonalLoop=1;jettySize=auto;html=1;" parent="1" source="4Rjvg9Pl1T5QLFHCRQXP-21" target="4Rjvg9Pl1T5QLFHCRQXP-2" edge="1">
          <mxGeometry relative="1" as="geometry" />
        </mxCell>
        <mxCell id="4Rjvg9Pl1T5QLFHCRQXP-21" value="Codigo" style="ellipse;whiteSpace=wrap;html=1;" parent="1" vertex="1">
          <mxGeometry x="610" y="220" width="120" height="80" as="geometry" />
        </mxCell>
      </root>
    </mxGraphModel>
  </diagram>
</mxfile>
